<svg xmlns="http://www.w3.org/2000/svg" xmlns:xlink="http://www.w3.org/1999/xlink" width="500" zoomAndPan="magnify" viewBox="0 0 375 374.999991" height="500" preserveAspectRatio="xMidYMid meet" version="1.0"><defs><g/><clipPath id="4aea28e739"><path d="M 23 185.640625 L 94 185.640625 L 94 222.347656 L 23 222.347656 Z M 23 185.640625 " clip-rule="nonzero"/></clipPath><clipPath id="5120a93760"><path d="M 56.214844 185.640625 L 85.5 185.640625 C 88.609375 185.640625 91.464844 187.351562 92.933594 190.09375 C 94.398438 192.832031 94.238281 196.160156 92.515625 198.746094 L 85.515625 209.246094 C 80.058594 217.433594 70.867188 222.347656 61.027344 222.347656 L 31.742188 222.347656 C 28.632812 222.347656 25.777344 220.636719 24.308594 217.898438 C 22.84375 215.15625 23.003906 211.832031 24.726562 209.246094 L 31.726562 198.746094 C 37.1875 190.558594 46.375 185.640625 56.214844 185.640625 Z M 56.214844 185.640625 " clip-rule="nonzero"/></clipPath><clipPath id="3472cb58ca"><path d="M 23 185.640625 L 93.988281 185.640625 L 93.988281 222.34375 L 23 222.34375 Z M 23 185.640625 " clip-rule="nonzero"/></clipPath><clipPath id="44c83c5499"><path d="M 56.210938 185.640625 L 85.492188 185.640625 C 88.601562 185.640625 91.457031 187.351562 92.925781 190.089844 C 94.390625 192.832031 94.230469 196.15625 92.507812 198.742188 L 85.507812 209.242188 C 80.050781 217.425781 70.863281 222.34375 61.023438 222.34375 L 31.742188 222.34375 C 28.632812 222.34375 25.777344 220.632812 24.3125 217.890625 C 22.847656 215.152344 23.007812 211.828125 24.730469 209.242188 L 31.730469 198.742188 C 37.1875 190.558594 46.375 185.640625 56.210938 185.640625 Z M 56.210938 185.640625 " clip-rule="nonzero"/></clipPath><clipPath id="4160d1f12b"><path d="M 23 168.289062 L 94 168.289062 L 94 205 L 23 205 Z M 23 168.289062 " clip-rule="nonzero"/></clipPath><clipPath id="458f50bf36"><path d="M 56.214844 168.289062 L 85.5 168.289062 C 88.609375 168.289062 91.464844 170 92.933594 172.742188 C 94.398438 175.480469 94.238281 178.808594 92.515625 181.394531 L 85.515625 191.894531 C 80.058594 200.082031 70.867188 205 61.027344 205 L 31.742188 205 C 28.632812 205 25.777344 203.289062 24.308594 200.546875 C 22.84375 197.804688 23.003906 194.480469 24.726562 191.894531 L 31.726562 181.394531 C 37.1875 173.207031 46.375 168.289062 56.214844 168.289062 Z M 56.214844 168.289062 " clip-rule="nonzero"/></clipPath><clipPath id="2f0046cb39"><path d="M 23 168.289062 L 93.988281 168.289062 L 93.988281 204.992188 L 23 204.992188 Z M 23 168.289062 " clip-rule="nonzero"/></clipPath><clipPath id="a966e7f1cb"><path d="M 56.210938 168.289062 L 85.492188 168.289062 C 88.601562 168.289062 91.457031 170 92.925781 172.742188 C 94.390625 175.480469 94.230469 178.804688 92.507812 181.390625 L 85.507812 191.890625 C 80.050781 200.074219 70.863281 204.992188 61.023438 204.992188 L 31.742188 204.992188 C 28.632812 204.992188 25.777344 203.28125 24.3125 200.542969 C 22.847656 197.800781 23.007812 194.476562 24.730469 191.890625 L 31.730469 181.390625 C 37.1875 173.207031 46.375 168.289062 56.210938 168.289062 Z M 56.210938 168.289062 " clip-rule="nonzero"/></clipPath><clipPath id="24bfbf65e2"><path d="M 23 150.796875 L 94 150.796875 L 94 187.507812 L 23 187.507812 Z M 23 150.796875 " clip-rule="nonzero"/></clipPath><clipPath id="bf82981d12"><path d="M 56.214844 150.796875 L 85.5 150.796875 C 88.609375 150.796875 91.464844 152.507812 92.933594 155.25 C 94.398438 157.988281 94.238281 161.316406 92.515625 163.902344 L 85.515625 174.402344 C 80.058594 182.589844 70.867188 187.507812 61.027344 187.507812 L 31.742188 187.507812 C 28.632812 187.507812 25.777344 185.796875 24.308594 183.054688 C 22.84375 180.3125 23.003906 176.988281 24.726562 174.402344 L 31.726562 163.902344 C 37.1875 155.714844 46.375 150.796875 56.214844 150.796875 Z M 56.214844 150.796875 " clip-rule="nonzero"/></clipPath><clipPath id="88ff44ad09"><path d="M 23 150.796875 L 93.988281 150.796875 L 93.988281 187.5 L 23 187.5 Z M 23 150.796875 " clip-rule="nonzero"/></clipPath><clipPath id="3abb5d11fd"><path d="M 56.210938 150.796875 L 85.492188 150.796875 C 88.601562 150.796875 91.457031 152.507812 92.925781 155.25 C 94.390625 157.988281 94.230469 161.3125 92.507812 163.898438 L 85.507812 174.398438 C 80.050781 182.582031 70.863281 187.5 61.023438 187.5 L 31.742188 187.5 C 28.632812 187.5 25.777344 185.789062 24.3125 183.050781 C 22.847656 180.308594 23.007812 176.984375 24.730469 174.398438 L 31.730469 163.898438 C 37.1875 155.714844 46.375 150.796875 56.210938 150.796875 Z M 56.210938 150.796875 " clip-rule="nonzero"/></clipPath></defs><rect x="-37.5" width="450" fill="#ffffff" y="-37.499999" height="449.999989" fill-opacity="1"/><rect x="-37.5" width="450" fill="#ffffff" y="-37.499999" height="449.999989" fill-opacity="1"/><g clip-path="url(#4aea28e739)"><g clip-path="url(#5120a93760)"><path fill="#38b6ff" d="M 15.992188 185.640625 L 101.3125 185.640625 L 101.3125 222.347656 L 15.992188 222.347656 Z M 15.992188 185.640625 " fill-opacity="1" fill-rule="nonzero"/></g></g><g clip-path="url(#3472cb58ca)"><g clip-path="url(#44c83c5499)"><path stroke-linecap="butt" transform="matrix(0.75, 0, 0, 0.75, 15.995471, 185.640077)" fill="none" stroke-linejoin="miter" d="M 53.620626 0.000731187 L 92.662295 0.000731187 C 96.808129 0.000731187 100.61542 2.281981 102.573754 5.933023 C 104.526879 9.589273 104.313337 14.021565 102.016462 17.469482 L 92.683128 31.469483 C 85.407086 42.380942 73.157085 48.938234 60.037293 48.938234 L 20.995624 48.938234 C 16.84979 48.938234 13.042498 46.656984 11.089373 43.000734 C 9.136248 39.349692 9.349789 34.9174 11.646665 31.469483 L 20.979999 17.469482 C 28.256041 6.558023 40.506041 0.000731187 53.620626 0.000731187 Z M 53.620626 0.000731187 " stroke="#38b6ff" stroke-width="12" stroke-opacity="1" stroke-miterlimit="4"/></g></g><g clip-path="url(#4160d1f12b)"><g clip-path="url(#458f50bf36)"><path fill="#ffbc45" d="M 15.992188 168.289062 L 101.3125 168.289062 L 101.3125 205 L 15.992188 205 Z M 15.992188 168.289062 " fill-opacity="1" fill-rule="nonzero"/></g></g><g clip-path="url(#2f0046cb39)"><g clip-path="url(#a966e7f1cb)"><path stroke-linecap="butt" transform="matrix(0.75, 0, 0, 0.75, 15.995471, 168.289736)" fill="none" stroke-linejoin="miter" d="M 53.620626 -0.000898199 L 92.662295 -0.000898199 C 96.808129 -0.000898199 100.61542 2.280352 102.573754 5.936602 C 104.526879 9.587644 104.313337 14.019936 102.016462 17.467853 L 92.683128 31.467854 C 85.407086 42.379313 73.157085 48.936605 60.037293 48.936605 L 20.995624 48.936605 C 16.84979 48.936605 13.042498 46.655355 11.089373 43.004313 C 9.136248 39.348063 9.349789 34.915771 11.646665 31.467854 L 20.979999 17.467853 C 28.256041 6.556394 40.506041 -0.000898199 53.620626 -0.000898199 Z M 53.620626 -0.000898199 " stroke="#ffbc45" stroke-width="12" stroke-opacity="1" stroke-miterlimit="4"/></g></g><g clip-path="url(#24bfbf65e2)"><g clip-path="url(#bf82981d12)"><path fill="#7ed957" d="M 15.992188 150.796875 L 101.3125 150.796875 L 101.3125 187.507812 L 15.992188 187.507812 Z M 15.992188 150.796875 " fill-opacity="1" fill-rule="nonzero"/></g></g><g clip-path="url(#88ff44ad09)"><g clip-path="url(#3abb5d11fd)"><path stroke-linecap="butt" transform="matrix(0.75, 0, 0, 0.75, 15.995471, 150.797349)" fill="none" stroke-linejoin="miter" d="M 53.620626 -0.000632397 L 92.662295 -0.000632397 C 96.808129 -0.000632397 100.61542 2.280618 102.573754 5.936868 C 104.526879 9.58791 104.313337 14.020202 102.016462 17.468119 L 92.683128 31.46812 C 85.407086 42.379579 73.157085 48.936871 60.037293 48.936871 L 20.995624 48.936871 C 16.84979 48.936871 13.042498 46.655621 11.089373 43.004579 C 9.136248 39.348329 9.349789 34.916037 11.646665 31.46812 L 20.979999 17.468119 C 28.256041 6.55666 40.506041 -0.000632397 53.620626 -0.000632397 Z M 53.620626 -0.000632397 " stroke="#7ed957" stroke-width="12" stroke-opacity="1" stroke-miterlimit="4"/></g></g><g fill="#7ed957" fill-opacity="1"><g transform="translate(96.81659, 202.515076)"><g><path d="M 8.6875 -11.90625 L 8.6875 -6.53125 L 22.59375 -6.53125 L 22.59375 0 L 1.40625 0 L 1.40625 -30.34375 L 22.59375 -30.34375 L 22.59375 -23.8125 L 8.6875 -23.8125 L 8.6875 -18.4375 L 20.5 -18.4375 L 20.5 -11.90625 Z M 8.6875 -11.90625 "/></g></g></g><g fill="#7ed957" fill-opacity="1"><g transform="translate(123.42234, 202.515076)"><g><path d="M 18.671875 -24.140625 L 25.21875 -24.140625 L 25.21875 0 L 18.671875 0 L 18.671875 -2.703125 C 17.335938 -0.960938 15.316406 -0.09375 12.609375 -0.09375 C 9.304688 -0.0625 6.472656 -1.210938 4.109375 -3.546875 C 1.742188 -5.878906 0.546875 -8.710938 0.515625 -12.046875 C 0.484375 -15.347656 1.632812 -18.179688 3.96875 -20.546875 C 6.300781 -22.910156 9.132812 -24.109375 12.46875 -24.140625 C 15.207031 -24.140625 17.273438 -23.25 18.671875 -21.46875 Z M 16.71875 -7.9375 C 17.863281 -9.09375 18.4375 -10.492188 18.4375 -12.140625 C 18.4375 -13.816406 17.847656 -15.21875 16.671875 -16.34375 C 15.484375 -17.519531 14.097656 -18.078125 12.515625 -18.015625 C 10.859375 -18.015625 9.457031 -17.441406 8.3125 -16.296875 C 7.15625 -15.140625 6.578125 -13.738281 6.578125 -12.09375 C 6.578125 -10.476562 7.171875 -9.078125 8.359375 -7.890625 C 9.503906 -6.734375 10.90625 -6.15625 12.5625 -6.15625 C 14.238281 -6.21875 15.625 -6.8125 16.71875 -7.9375 Z M 16.71875 -7.9375 "/></g></g></g><g fill="#7ed957" fill-opacity="1"><g transform="translate(152.64193, 202.515076)"><g><path d="M 7.9375 -20.453125 C 8.46875 -21.941406 9.351562 -22.984375 10.59375 -23.578125 C 11.8125 -24.171875 13.632812 -24.46875 16.0625 -24.46875 L 16.0625 -17.78125 C 13.695312 -17.78125 11.71875 -16.972656 10.125 -15.359375 C 8.664062 -13.929688 7.9375 -12.359375 7.9375 -10.640625 L 7.9375 0 L 1.40625 0 L 1.40625 -24.046875 L 7.9375 -24.046875 Z M 7.9375 -20.453125 "/></g></g></g><g fill="#7ed957" fill-opacity="1"><g transform="translate(172.012931, 202.515076)"><g><path d="M 18.71875 -24.046875 L 18.71875 -17.515625 L 13.359375 -17.515625 L 13.359375 0 L 6.8125 0 L 6.8125 -17.515625 L 1.40625 -17.515625 L 1.40625 -24.046875 L 6.8125 -24.046875 L 6.8125 -32.453125 L 13.359375 -32.453125 L 13.359375 -24.046875 Z M 18.71875 -24.046875 "/></g></g></g><g fill="#7ed957" fill-opacity="1"><g transform="translate(194.744593, 202.515076)"><g><path d="M 25.90625 0 L 19.84375 0 L 19.84375 -11.859375 L 19.796875 -11.859375 L 19.796875 -12 C 19.796875 -13.613281 19.21875 -15 18.0625 -16.15625 C 16.914062 -17.300781 15.515625 -17.875 13.859375 -17.875 C 12.242188 -17.875 10.847656 -17.285156 9.671875 -16.109375 C 8.484375 -14.921875 7.921875 -13.519531 7.984375 -11.90625 L 7.984375 -11.859375 L 7.9375 -11.859375 L 7.9375 0 L 1.40625 0 L 1.40625 -30.34375 L 7.9375 -30.34375 L 7.9375 -21.015625 C 9.394531 -22.753906 11.351562 -23.734375 13.8125 -23.953125 C 17.238281 -24.234375 20.070312 -23.347656 22.3125 -21.296875 C 24.707031 -19.078125 25.90625 -15.976562 25.90625 -12 Z M 25.90625 0 "/></g></g></g><g fill="#7ed957" fill-opacity="1"><g transform="translate(224.664322, 202.515076)"><g><path d="M 27.125 -3.828125 C 24.164062 -1.367188 20.789062 -0.140625 17 -0.140625 C 12.695312 -0.140625 9.019531 -1.664062 5.96875 -4.71875 C 2.925781 -7.769531 1.40625 -11.441406 1.40625 -15.734375 C 1.40625 -20.054688 2.925781 -23.742188 5.96875 -26.796875 C 9.019531 -29.847656 12.695312 -31.375 17 -31.375 C 20.820312 -31.375 24.195312 -30.128906 27.125 -27.640625 L 22.453125 -23.015625 C 20.867188 -24.234375 19.050781 -24.84375 17 -24.84375 C 14.507812 -24.84375 12.375 -23.953125 10.59375 -22.171875 C 8.820312 -20.398438 7.9375 -18.253906 7.9375 -15.734375 C 7.9375 -13.242188 8.820312 -11.113281 10.59375 -9.34375 C 12.375 -7.5625 14.507812 -6.671875 17 -6.671875 C 19.050781 -6.671875 20.867188 -7.28125 22.453125 -8.5 Z M 27.125 -3.828125 "/></g></g></g><g fill="#7ed957" fill-opacity="1"><g transform="translate(257.197905, 202.515076)"><g><path d="M 24.046875 -24.09375 L 14.5625 1.078125 C 13.539062 3.566406 11.910156 5.539062 9.671875 7 C 7.421875 8.46875 4.972656 9.171875 2.328125 9.109375 L 2.328125 2.5625 C 3.296875 2.59375 4.265625 2.390625 5.234375 1.953125 C 6.597656 1.335938 7.625 0.359375 8.3125 -0.984375 L 9.625 -4.578125 L 1.40625 -24.09375 L 8.59375 -24.09375 L 12.9375 -13.59375 L 16.8125 -24.09375 Z M 24.046875 -24.09375 "/></g></g></g><g fill="#7ed957" fill-opacity="1"><g transform="translate(285.29728, 202.515076)"><g><path d="M 20.640625 -2.890625 C 18.367188 -0.960938 15.722656 0 12.703125 0 C 9.367188 -0.03125 6.535156 -1.226562 4.203125 -3.59375 C 1.867188 -5.957031 0.71875 -8.789062 0.75 -12.09375 C 0.78125 -15.425781 1.976562 -18.257812 4.34375 -20.59375 C 6.707031 -22.925781 9.539062 -24.078125 12.84375 -24.046875 C 15.832031 -24.015625 18.445312 -23.019531 20.6875 -21.0625 L 16.34375 -16.765625 C 15.28125 -17.535156 14.097656 -17.921875 12.796875 -17.921875 C 11.171875 -17.921875 9.769531 -17.363281 8.59375 -16.25 C 7.4375 -15.09375 6.859375 -13.691406 6.859375 -12.046875 C 6.796875 -10.429688 7.359375 -9.03125 8.546875 -7.84375 C 9.660156 -6.71875 11.0625 -6.125 12.75 -6.0625 C 14.050781 -6.0625 15.234375 -6.453125 16.296875 -7.234375 Z M 20.640625 -2.890625 "/></g></g></g><g fill="#7ed957" fill-opacity="1"><g transform="translate(309.289187, 202.515076)"><g><path d="M 7.9375 -32.453125 L 7.9375 0 L 1.40625 0 L 1.40625 -32.453125 Z M 7.9375 -32.453125 "/></g></g></g><g fill="#7ed957" fill-opacity="1"><g transform="translate(321.238741, 202.515076)"><g><path d="M 24.5625 -10.96875 C 24.59375 -10.3125 24.59375 -9.921875 24.5625 -9.796875 L 7 -9.84375 C 7.25 -9.132812 7.703125 -8.453125 8.359375 -7.796875 C 9.566406 -6.640625 10.96875 -6.0625 12.5625 -6.0625 C 14.238281 -6.125 15.640625 -6.71875 16.765625 -7.84375 L 16.953125 -8.03125 L 23.015625 -6.109375 C 21.679688 -4.023438 20.28125 -2.535156 18.8125 -1.640625 C 17.164062 -0.578125 15.097656 -0.03125 12.609375 0 C 9.304688 0.03125 6.472656 -1.117188 4.109375 -3.453125 C 1.742188 -5.785156 0.546875 -8.617188 0.515625 -11.953125 C 0.484375 -15.253906 1.632812 -18.085938 3.96875 -20.453125 C 6.300781 -22.816406 9.132812 -24.015625 12.46875 -24.046875 C 15.769531 -24.078125 18.601562 -22.925781 20.96875 -20.59375 C 23.332031 -18.257812 24.53125 -15.425781 24.5625 -12.09375 Z M 12.515625 -17.921875 C 10.859375 -17.921875 9.457031 -17.347656 8.3125 -16.203125 C 7.71875 -15.546875 7.296875 -14.890625 7.046875 -14.234375 L 18.015625 -14.234375 C 17.765625 -14.890625 17.332031 -15.5625 16.71875 -16.25 C 15.53125 -17.363281 14.128906 -17.921875 12.515625 -17.921875 Z M 12.515625 -17.921875 "/></g></g></g><g fill="#141713" fill-opacity="1"><g transform="translate(248.276619, 228.501782)"><g><path d="M 7.25 -10.359375 L 9.734375 -10.359375 L 9.734375 0 L 2.875 -5.046875 L 2.875 0 L 0.375 0 L 0.375 -10.359375 L 7.25 -5.0625 Z M 7.25 -10.359375 "/></g></g></g><g fill="#141713" fill-opacity="1"><g transform="translate(261.713981, 228.501782)"><g><path d="M 2.96875 -4.0625 L 2.96875 -2.234375 L 7.71875 -2.234375 L 7.71875 0 L 0.484375 0 L 0.484375 -10.359375 L 7.71875 -10.359375 L 7.71875 -8.125 L 2.96875 -8.125 L 2.96875 -6.296875 L 7 -6.296875 L 7 -4.0625 Z M 2.96875 -4.0625 "/></g></g></g><g fill="#141713" fill-opacity="1"><g transform="translate(273.2229, 228.501782)"><g><path d="M 8.34375 -7.875 L 5.65625 -7.875 L 5.65625 0 L 3.171875 0 L 3.171875 -7.875 L 0.484375 -7.875 L 0.484375 -10.359375 L 8.34375 -10.359375 Z M 8.34375 -7.875 "/></g></g></g><g fill="#141713" fill-opacity="1"><g transform="translate(285.225884, 228.501782)"><g><path d="M 15.234375 -10.359375 L 9.65625 0 L 7.859375 -3.34375 L 6.0625 0 L 0.484375 -10.359375 L 3.34375 -10.359375 L 6.0625 -5.1875 L 6.453125 -5.9375 L 4.078125 -10.359375 L 6.953125 -10.359375 L 9.65625 -5.1875 L 12.375 -10.359375 Z M 15.234375 -10.359375 "/></g></g></g><g fill="#141713" fill-opacity="1"><g transform="translate(304.257312, 228.501782)"><g><path d="M 5.578125 -10.3125 C 7.054688 -10.3125 8.316406 -9.789062 9.359375 -8.75 C 10.398438 -7.707031 10.921875 -6.445312 10.921875 -4.96875 C 10.921875 -3.488281 10.398438 -2.234375 9.359375 -1.203125 C 8.316406 -0.160156 7.054688 0.359375 5.578125 0.359375 C 4.097656 0.359375 2.835938 -0.160156 1.796875 -1.203125 C 0.753906 -2.234375 0.234375 -3.488281 0.234375 -4.96875 C 0.234375 -6.445312 0.753906 -7.707031 1.796875 -8.75 C 2.835938 -9.789062 4.097656 -10.3125 5.578125 -10.3125 Z M 7.78125 -2.765625 C 8.382812 -3.378906 8.6875 -4.113281 8.6875 -4.96875 C 8.6875 -5.832031 8.382812 -6.566406 7.78125 -7.171875 C 7.175781 -7.773438 6.441406 -8.078125 5.578125 -8.078125 C 4.710938 -8.078125 3.976562 -7.773438 3.375 -7.171875 C 2.769531 -6.566406 2.46875 -5.832031 2.46875 -4.96875 C 2.46875 -4.113281 2.769531 -3.378906 3.375 -2.765625 C 4 -2.160156 4.734375 -1.859375 5.578125 -1.859375 C 6.421875 -1.859375 7.15625 -2.160156 7.78125 -2.765625 Z M 7.78125 -2.765625 "/></g></g></g><g fill="#141713" fill-opacity="1"><g transform="translate(318.730608, 228.501782)"><g><path d="M 9.125 -6.828125 C 9.125 -6.148438 8.957031 -5.523438 8.625 -4.953125 C 8.207031 -4.273438 7.625 -3.800781 6.875 -3.53125 L 9.09375 0 L 6.3125 0 L 4.140625 -3.296875 L 2.96875 -3.296875 L 2.96875 0 L 0.484375 0 L 0.484375 -10.359375 L 5.4375 -10.359375 C 6.613281 -10.359375 7.546875 -9.972656 8.234375 -9.203125 C 8.828125 -8.515625 9.125 -7.722656 9.125 -6.828125 Z M 2.96875 -8.125 L 2.96875 -5.53125 L 5.421875 -5.53125 C 5.753906 -5.53125 6.023438 -5.578125 6.234375 -5.671875 C 6.398438 -5.765625 6.519531 -5.851562 6.59375 -5.9375 C 6.695312 -6.070312 6.78125 -6.222656 6.84375 -6.390625 C 6.882812 -6.535156 6.90625 -6.679688 6.90625 -6.828125 C 6.90625 -6.972656 6.882812 -7.117188 6.84375 -7.265625 C 6.769531 -7.429688 6.675781 -7.582031 6.5625 -7.71875 C 6.332031 -7.988281 5.957031 -8.125 5.4375 -8.125 Z M 2.96875 -8.125 "/></g></g></g><g fill="#141713" fill-opacity="1"><g transform="translate(331.657968, 228.501782)"><g><path d="M 7.734375 0 L 4.09375 -3.859375 L 2.96875 -2.703125 L 2.96875 0 L 0.484375 0 L 0.484375 -10.359375 L 2.96875 -10.359375 L 2.96875 -6.234375 L 7.09375 -10.359375 L 10.609375 -10.359375 L 5.859375 -5.625 L 11.25 0 Z M 7.734375 0 "/></g></g></g></svg>