<svg xmlns="http://www.w3.org/2000/svg" xmlns:xlink="http://www.w3.org/1999/xlink" width="500" zoomAndPan="magnify" viewBox="0 0 375 374.999991" height="500" preserveAspectRatio="xMidYMid meet" version="1.0"><defs><g/><clipPath id="03dab5830c"><path d="M 38.28125 186.792969 L 109.980469 186.792969 L 109.980469 223.503906 L 38.28125 223.503906 Z M 38.28125 186.792969 " clip-rule="nonzero"/></clipPath><clipPath id="61cfdddec5"><path d="M 71.765625 186.792969 L 101.050781 186.792969 C 104.160156 186.792969 107.015625 188.503906 108.484375 191.246094 C 109.949219 193.984375 109.789062 197.3125 108.066406 199.898438 L 101.066406 210.398438 C 95.605469 218.585938 86.417969 223.503906 76.578125 223.503906 L 47.292969 223.503906 C 44.183594 223.503906 41.328125 221.792969 39.859375 219.050781 C 38.394531 216.308594 38.554688 212.984375 40.277344 210.398438 L 47.277344 199.898438 C 52.734375 191.710938 61.925781 186.792969 71.765625 186.792969 Z M 71.765625 186.792969 " clip-rule="nonzero"/></clipPath><clipPath id="ed5b2c1439"><path d="M 38 186.792969 L 109.539062 186.792969 L 109.539062 223.496094 L 38 223.496094 Z M 38 186.792969 " clip-rule="nonzero"/></clipPath><clipPath id="8e709edc2d"><path d="M 71.761719 186.792969 L 101.042969 186.792969 C 104.152344 186.792969 107.007812 188.503906 108.472656 191.246094 C 109.941406 193.984375 109.78125 197.308594 108.054688 199.894531 L 101.058594 210.394531 C 95.601562 218.578125 86.414062 223.496094 76.574219 223.496094 L 47.292969 223.496094 C 44.183594 223.496094 41.328125 221.785156 39.863281 219.046875 C 38.394531 216.304688 38.558594 212.980469 40.28125 210.394531 L 47.28125 199.894531 C 52.738281 191.710938 61.921875 186.792969 71.761719 186.792969 Z M 71.761719 186.792969 " clip-rule="nonzero"/></clipPath><clipPath id="d868a63614"><path d="M 38.28125 169.445312 L 109.980469 169.445312 L 109.980469 206.152344 L 38.28125 206.152344 Z M 38.28125 169.445312 " clip-rule="nonzero"/></clipPath><clipPath id="06395007a1"><path d="M 71.765625 169.445312 L 101.050781 169.445312 C 104.160156 169.445312 107.015625 171.15625 108.484375 173.894531 C 109.949219 176.636719 109.789062 179.960938 108.066406 182.546875 L 101.066406 193.046875 C 95.605469 201.234375 86.417969 206.152344 76.578125 206.152344 L 47.292969 206.152344 C 44.183594 206.152344 41.328125 204.441406 39.859375 201.699219 C 38.394531 198.960938 38.554688 195.632812 40.277344 193.046875 L 47.277344 182.546875 C 52.734375 174.359375 61.925781 169.445312 71.765625 169.445312 Z M 71.765625 169.445312 " clip-rule="nonzero"/></clipPath><clipPath id="02d3ca04a0"><path d="M 38 169.445312 L 109.539062 169.445312 L 109.539062 206.148438 L 38 206.148438 Z M 38 169.445312 " clip-rule="nonzero"/></clipPath><clipPath id="aca19510cc"><path d="M 71.761719 169.445312 L 101.042969 169.445312 C 104.152344 169.445312 107.007812 171.152344 108.472656 173.894531 C 109.941406 176.632812 109.78125 179.960938 108.054688 182.546875 L 101.058594 193.042969 C 95.601562 201.230469 86.414062 206.148438 76.574219 206.148438 L 47.292969 206.148438 C 44.183594 206.148438 41.328125 204.4375 39.863281 201.695312 C 38.394531 198.957031 38.558594 195.628906 40.28125 193.042969 L 47.28125 182.546875 C 52.738281 174.359375 61.921875 169.445312 71.761719 169.445312 Z M 71.761719 169.445312 " clip-rule="nonzero"/></clipPath><clipPath id="cc01662ba9"><path d="M 38.28125 151.949219 L 109.980469 151.949219 L 109.980469 188.660156 L 38.28125 188.660156 Z M 38.28125 151.949219 " clip-rule="nonzero"/></clipPath><clipPath id="cfb93c3deb"><path d="M 71.765625 151.949219 L 101.050781 151.949219 C 104.160156 151.949219 107.015625 153.660156 108.484375 156.402344 C 109.949219 159.144531 109.789062 162.46875 108.066406 165.054688 L 101.066406 175.554688 C 95.605469 183.742188 86.417969 188.660156 76.578125 188.660156 L 47.292969 188.660156 C 44.183594 188.660156 41.328125 186.949219 39.859375 184.207031 C 38.394531 181.46875 38.554688 178.140625 40.277344 175.554688 L 47.277344 165.054688 C 52.734375 156.867188 61.925781 151.949219 71.765625 151.949219 Z M 71.765625 151.949219 " clip-rule="nonzero"/></clipPath><clipPath id="8424e8efe8"><path d="M 38 151.949219 L 109.539062 151.949219 L 109.539062 188.652344 L 38 188.652344 Z M 38 151.949219 " clip-rule="nonzero"/></clipPath><clipPath id="b37c44ea4f"><path d="M 71.761719 151.949219 L 101.042969 151.949219 C 104.152344 151.949219 107.007812 153.660156 108.472656 156.402344 C 109.941406 159.140625 109.78125 162.46875 108.054688 165.054688 L 101.058594 175.550781 C 95.601562 183.738281 86.414062 188.652344 76.574219 188.652344 L 47.292969 188.652344 C 44.183594 188.652344 41.328125 186.945312 39.863281 184.203125 C 38.394531 181.460938 38.558594 178.136719 40.28125 175.550781 L 47.28125 165.054688 C 52.738281 156.867188 61.921875 151.949219 71.761719 151.949219 Z M 71.761719 151.949219 " clip-rule="nonzero"/></clipPath></defs><rect x="-37.5" width="450" fill="#ffffff" y="-37.499999" height="449.999989" fill-opacity="1"/><rect x="-37.5" width="450" fill="#ffffff" y="-37.499999" height="449.999989" fill-opacity="1"/><g clip-path="url(#03dab5830c)"><g clip-path="url(#61cfdddec5)"><path fill="#02d4d4" d="M 31.542969 186.792969 L 116.863281 186.792969 L 116.863281 223.503906 L 31.542969 223.503906 Z M 31.542969 186.792969 " fill-opacity="1" fill-rule="nonzero"/></g></g><g clip-path="url(#ed5b2c1439)"><g clip-path="url(#8e709edc2d)"><path stroke-linecap="butt" transform="matrix(0.75, 0, 0, 0.75, 31.545709, 186.793699)" fill="none" stroke-linejoin="miter" d="M 53.62135 -0.000973579 L 92.663019 -0.000973579 C 96.808852 -0.000973579 100.616144 2.280277 102.569269 5.936527 C 104.527603 9.587569 104.314061 14.019861 102.011978 17.467778 L 92.683852 31.467778 C 85.40781 42.379238 73.157809 48.93653 60.038017 48.93653 L 20.996347 48.93653 C 16.850514 48.93653 13.043222 46.655279 11.090097 43.004238 C 9.131763 39.347987 9.350513 34.915695 11.647388 31.467778 L 20.980722 17.467778 C 28.256765 6.556319 40.501557 -0.000973579 53.62135 -0.000973579 Z M 53.62135 -0.000973579 " stroke="#ffffff" stroke-width="12" stroke-opacity="1" stroke-miterlimit="4"/></g></g><g clip-path="url(#d868a63614)"><g clip-path="url(#06395007a1)"><path fill="#ffbc45" d="M 31.542969 169.445312 L 116.863281 169.445312 L 116.863281 206.152344 L 31.542969 206.152344 Z M 31.542969 169.445312 " fill-opacity="1" fill-rule="nonzero"/></g></g><g clip-path="url(#02d3ca04a0)"><g clip-path="url(#aca19510cc)"><path stroke-linecap="butt" transform="matrix(0.75, 0, 0, 0.75, 31.545709, 169.443387)" fill="none" stroke-linejoin="miter" d="M 53.62135 0.00256697 L 92.663019 0.00256697 C 96.808852 0.00256697 100.616144 2.278609 102.569269 5.934859 C 104.527603 9.585901 104.314061 14.023401 102.011978 17.471318 L 92.683852 31.466111 C 85.40781 42.382778 73.157809 48.94007 60.038017 48.94007 L 20.996347 48.94007 C 16.850514 48.94007 13.043222 46.65882 11.090097 43.00257 C 9.131763 39.351528 9.350513 34.914028 11.647388 31.466111 L 20.980722 17.471318 C 28.256765 6.554651 40.501557 0.00256697 53.62135 0.00256697 Z M 53.62135 0.00256697 " stroke="#ffffff" stroke-width="12" stroke-opacity="1" stroke-miterlimit="4"/></g></g><g clip-path="url(#cc01662ba9)"><g clip-path="url(#cfb93c3deb)"><path fill="#f91974" d="M 31.542969 151.949219 L 116.863281 151.949219 L 116.863281 188.660156 L 31.542969 188.660156 Z M 31.542969 151.949219 " fill-opacity="1" fill-rule="nonzero"/></g></g><g clip-path="url(#8424e8efe8)"><g clip-path="url(#b37c44ea4f)"><path stroke-linecap="butt" transform="matrix(0.75, 0, 0, 0.75, 31.545709, 151.950928)" fill="none" stroke-linejoin="miter" d="M 53.62135 -0.00227956 L 92.663019 -0.00227956 C 96.808852 -0.00227956 100.616144 2.278971 102.569269 5.935221 C 104.527603 9.586263 104.314061 14.023763 102.011978 17.47168 L 92.683852 31.466473 C 85.40781 42.38314 73.157809 48.935224 60.038017 48.935224 L 20.996347 48.935224 C 16.850514 48.935224 13.043222 46.653974 11.090097 43.002932 C 9.131763 39.346681 9.350513 34.914389 11.647388 31.466473 L 20.980722 17.47168 C 28.256765 6.555013 40.501557 -0.00227956 53.62135 -0.00227956 Z M 53.62135 -0.00227956 " stroke="#ffffff" stroke-width="12" stroke-opacity="1" stroke-miterlimit="4"/></g></g><g fill="#01013f" fill-opacity="1"><g transform="translate(119.856932, 209.30596)"><g><path d="M 26.734375 -34.34375 L 26.734375 -25 L 19.0625 -25 L 19.0625 0 L 9.734375 0 L 9.734375 -25 L 2 -25 L 2 -34.34375 L 9.734375 -34.34375 L 9.734375 -46.34375 L 19.0625 -46.34375 L 19.0625 -34.34375 Z M 26.734375 -34.34375 "/></g></g></g><g fill="#01013f" fill-opacity="1"><g transform="translate(152.326935, 209.30596)"><g><path d="M 35.0625 -15.671875 C 35.113281 -14.734375 35.113281 -14.175781 35.0625 -14 L 10 -14.0625 C 10.351562 -13.039062 11 -12.066406 11.9375 -11.140625 C 13.664062 -9.492188 15.664062 -8.671875 17.9375 -8.671875 C 20.332031 -8.753906 22.332031 -9.597656 23.9375 -11.203125 L 24.203125 -11.46875 L 32.875 -8.734375 C 30.957031 -5.753906 28.957031 -3.617188 26.875 -2.328125 C 24.507812 -0.816406 21.550781 -0.0390625 18 0 C 13.289062 0.0390625 9.242188 -1.601562 5.859375 -4.9375 C 2.484375 -8.269531 0.773438 -12.3125 0.734375 -17.0625 C 0.691406 -21.78125 2.335938 -25.828125 5.671875 -29.203125 C 9.003906 -32.578125 13.046875 -34.289062 17.796875 -34.34375 C 22.515625 -34.382812 26.5625 -32.738281 29.9375 -29.40625 C 33.3125 -26.070312 35.019531 -22.023438 35.0625 -17.265625 Z M 17.875 -25.609375 C 15.507812 -25.609375 13.507812 -24.785156 11.875 -23.140625 C 11.019531 -22.203125 10.414062 -21.265625 10.0625 -20.328125 L 25.734375 -20.328125 C 25.378906 -21.265625 24.757812 -22.222656 23.875 -23.203125 C 22.175781 -24.804688 20.175781 -25.609375 17.875 -25.609375 Z M 17.875 -25.609375 "/></g></g></g><g fill="#01013f" fill-opacity="1"><g transform="translate(191.864171, 209.30596)"><g><path d="M 44 -34.40625 C 48.625 -34.445312 52.378906 -33.066406 55.265625 -30.265625 C 58.378906 -27.335938 59.9375 -23.226562 59.9375 -17.9375 L 59.9375 0 L 51.265625 0 L 51.265625 -17.328125 C 51.265625 -17.992188 51.15625 -18.75 50.9375 -19.59375 C 50.625 -20.625 50.203125 -21.535156 49.671875 -22.328125 C 48.242188 -24.597656 46.15625 -25.734375 43.40625 -25.734375 C 40.46875 -25.734375 38.332031 -24.597656 37 -22.328125 C 36.507812 -21.484375 36.15625 -20.53125 35.9375 -19.46875 C 35.757812 -18.707031 35.671875 -17.953125 35.671875 -17.203125 L 35.671875 0 L 26.9375 0 L 26.9375 -17.328125 C 26.9375 -17.992188 26.828125 -18.75 26.609375 -19.59375 C 26.335938 -20.625 25.9375 -21.535156 25.40625 -22.328125 C 23.9375 -24.597656 21.847656 -25.734375 19.140625 -25.734375 C 16.160156 -25.734375 14.003906 -24.597656 12.671875 -22.328125 C 12.179688 -21.484375 11.820312 -20.53125 11.59375 -19.46875 C 11.414062 -18.707031 11.328125 -17.953125 11.328125 -17.203125 L 11.328125 0 L 2 0 L 2 -34.46875 L 11.328125 -34.46875 L 11.328125 -30.875 C 13.503906 -33.226562 16.304688 -34.40625 19.734375 -34.40625 C 24.753906 -34.488281 28.820312 -32.554688 31.9375 -28.609375 L 34.734375 -31.203125 C 37.359375 -33.335938 40.445312 -34.40625 44 -34.40625 Z M 44 -34.40625 "/></g></g></g><g fill="#01013f" fill-opacity="1"><g transform="translate(257.536829, 209.30596)"><g><path d="M 19.875 -34.34375 C 24.582031 -34.382812 28.625 -32.738281 32 -29.40625 C 35.375 -26.070312 37.085938 -22.023438 37.140625 -17.265625 C 37.179688 -12.554688 35.535156 -8.515625 32.203125 -5.140625 C 28.867188 -1.753906 24.820312 -0.0390625 20.0625 0 C 16.195312 0 13.285156 -1.222656 11.328125 -3.671875 L 11.328125 12.796875 L 2 12.796875 L 2 -34.265625 L 11.328125 -34.265625 L 11.328125 -30.671875 C 13.148438 -33.023438 16 -34.25 19.875 -34.34375 Z M 26 -11.203125 C 27.6875 -12.890625 28.488281 -14.890625 28.40625 -17.203125 C 28.40625 -19.554688 27.582031 -21.554688 25.9375 -23.203125 C 24.25 -24.804688 22.25 -25.609375 19.9375 -25.609375 C 17.582031 -25.609375 15.582031 -24.785156 13.9375 -23.140625 C 12.289062 -21.398438 11.46875 -19.398438 11.46875 -17.140625 C 11.550781 -14.734375 12.394531 -12.734375 14 -11.140625 C 15.644531 -9.492188 17.644531 -8.671875 20 -8.671875 C 22.40625 -8.753906 24.40625 -9.597656 26 -11.203125 Z M 26 -11.203125 "/></g></g></g><g fill="#01013f" fill-opacity="1"><g transform="translate(299.474248, 209.30596)"><g><path d="M 17.796875 -34.34375 C 22.554688 -34.382812 26.601562 -32.738281 29.9375 -29.40625 C 33.3125 -26.019531 35 -21.972656 35 -17.265625 C 35.039062 -12.515625 33.394531 -8.472656 30.0625 -5.140625 C 26.726562 -1.753906 22.707031 -0.0390625 18 0 C 13.25 0.0390625 9.179688 -1.601562 5.796875 -4.9375 C 2.421875 -8.269531 0.734375 -12.3125 0.734375 -17.0625 C 0.691406 -21.820312 2.335938 -25.867188 5.671875 -29.203125 C 9.003906 -32.578125 13.046875 -34.289062 17.796875 -34.34375 Z M 23.875 -11.203125 C 25.507812 -12.847656 26.328125 -14.847656 26.328125 -17.203125 C 26.328125 -19.515625 25.484375 -21.515625 23.796875 -23.203125 C 22.109375 -24.804688 20.109375 -25.609375 17.796875 -25.609375 C 15.484375 -25.609375 13.507812 -24.785156 11.875 -23.140625 C 10.226562 -21.398438 9.40625 -19.398438 9.40625 -17.140625 C 9.40625 -14.828125 10.25 -12.828125 11.9375 -11.140625 C 13.582031 -9.492188 15.582031 -8.671875 17.9375 -8.671875 C 20.332031 -8.753906 22.3125 -9.597656 23.875 -11.203125 Z M 23.875 -11.203125 "/></g></g></g><g fill="#01013f" fill-opacity="1"><g transform="translate(181.247013, 165.935854)"><g><path d="M 8.53125 0 L 7.453125 0 L 6.40625 -2.484375 L 2.15625 -2.484375 L 1.109375 0 L 0.03125 0 L 3.671875 -8.5625 L 4.890625 -8.5625 Z M 6.03125 -3.375 L 4.28125 -7.5625 L 2.53125 -3.375 Z M 6.03125 -3.375 "/></g></g></g><g fill="#01013f" fill-opacity="1"><g transform="translate(192.502914, 165.935854)"><g><path d="M 1.65625 -7.390625 C 2.019531 -7.785156 2.457031 -8.097656 2.96875 -8.328125 C 3.488281 -8.554688 4.023438 -8.671875 4.578125 -8.671875 C 5.128906 -8.671875 5.609375 -8.609375 6.015625 -8.484375 C 6.421875 -8.367188 6.785156 -8.207031 7.109375 -8 C 7.796875 -7.550781 8.296875 -6.960938 8.609375 -6.234375 L 7.5625 -6.234375 C 7.300781 -6.703125 6.9375 -7.066406 6.46875 -7.328125 C 6.007812 -7.585938 5.488281 -7.71875 4.90625 -7.71875 C 4.320312 -7.71875 3.820312 -7.628906 3.40625 -7.453125 C 2.988281 -7.273438 2.640625 -7.035156 2.359375 -6.734375 C 1.765625 -6.085938 1.46875 -5.269531 1.46875 -4.28125 C 1.46875 -3.28125 1.757812 -2.46875 2.34375 -1.84375 C 2.957031 -1.175781 3.769531 -0.84375 4.78125 -0.84375 C 5.582031 -0.84375 6.28125 -1.09375 6.875 -1.59375 C 7.488281 -2.113281 7.796875 -2.804688 7.796875 -3.671875 L 4.671875 -3.671875 L 4.671875 -4.546875 L 8.6875 -4.546875 L 8.6875 0 L 7.796875 0 L 7.796875 -1.515625 C 7.304688 -0.773438 6.625 -0.28125 5.75 -0.03125 C 5.4375 0.0625 5.019531 0.109375 4.5 0.109375 C 3.976562 0.109375 3.457031 -0.00390625 2.9375 -0.234375 C 2.414062 -0.460938 1.976562 -0.773438 1.625 -1.171875 C 0.875 -1.984375 0.5 -3.019531 0.5 -4.28125 C 0.5 -5.519531 0.882812 -6.554688 1.65625 -7.390625 Z M 1.65625 -7.390625 "/></g></g></g><g fill="#01013f" fill-opacity="1"><g transform="translate(204.547832, 165.935854)"><g><path d="M 2.015625 -7.640625 L 2.015625 -4.765625 L 6.78125 -4.765625 L 6.78125 -3.8125 L 2.015625 -3.8125 L 2.015625 -0.9375 L 7.34375 -0.9375 L 7.34375 0 L 1.046875 0 L 1.046875 -8.5625 L 7.34375 -8.5625 L 7.34375 -7.640625 Z M 2.015625 -7.640625 "/></g></g></g><g fill="#01013f" fill-opacity="1"><g transform="translate(215.10526, 165.935854)"><g><path d="M 8.4375 -8.5625 L 8.4375 0 L 7.3125 0 L 2.015625 -7.234375 L 2.015625 0 L 1.046875 0 L 1.046875 -8.5625 L 2.171875 -8.5625 L 7.46875 -1.359375 L 7.46875 -8.5625 Z M 8.4375 -8.5625 "/></g></g></g><g fill="#01013f" fill-opacity="1"><g transform="translate(227.279533, 165.935854)"><g><path d="M 4.859375 -0.84375 C 5.472656 -0.84375 6.007812 -0.992188 6.46875 -1.296875 C 6.9375 -1.609375 7.28125 -2.03125 7.5 -2.5625 L 8.53125 -2.5625 C 8.238281 -1.75 7.765625 -1.109375 7.109375 -0.640625 C 6.410156 -0.140625 5.585938 0.109375 4.640625 0.109375 C 3.390625 0.109375 2.378906 -0.316406 1.609375 -1.171875 C 0.867188 -1.992188 0.5 -3.03125 0.5 -4.28125 C 0.5 -5.53125 0.867188 -6.566406 1.609375 -7.390625 C 2.378906 -8.242188 3.390625 -8.671875 4.640625 -8.671875 C 5.585938 -8.671875 6.410156 -8.421875 7.109375 -7.921875 C 7.765625 -7.453125 8.238281 -6.8125 8.53125 -6 L 7.5 -6 C 7.28125 -6.53125 6.9375 -6.945312 6.46875 -7.25 C 6.007812 -7.5625 5.472656 -7.71875 4.859375 -7.71875 C 4.253906 -7.71875 3.75 -7.628906 3.34375 -7.453125 C 2.9375 -7.273438 2.59375 -7.035156 2.3125 -6.734375 C 1.75 -6.097656 1.46875 -5.28125 1.46875 -4.28125 C 1.46875 -3.28125 1.75 -2.46875 2.3125 -1.84375 C 2.90625 -1.175781 3.753906 -0.84375 4.859375 -0.84375 Z M 4.859375 -0.84375 "/></g></g></g><g fill="#01013f" fill-opacity="1"><g transform="translate(238.897602, 165.935854)"><g><path d="M 2.015625 -7.640625 L 2.015625 -4.765625 L 6.78125 -4.765625 L 6.78125 -3.8125 L 2.015625 -3.8125 L 2.015625 -0.9375 L 7.34375 -0.9375 L 7.34375 0 L 1.046875 0 L 1.046875 -8.5625 L 7.34375 -8.5625 L 7.34375 -7.640625 Z M 2.015625 -7.640625 "/></g></g></g><g fill="#01013f" fill-opacity="1"><g transform="translate(249.455031, 165.935854)"><g/></g></g><g fill="#01013f" fill-opacity="1"><g transform="translate(254.903202, 165.935854)"><g><path d="M 4.65625 -8.5625 C 5.164062 -8.5625 5.65625 -8.460938 6.125 -8.265625 C 6.601562 -8.078125 7.023438 -7.796875 7.390625 -7.421875 C 8.191406 -6.609375 8.59375 -5.5625 8.59375 -4.28125 C 8.59375 -3.007812 8.191406 -1.960938 7.390625 -1.140625 C 7.023438 -0.765625 6.601562 -0.476562 6.125 -0.28125 C 5.65625 -0.09375 5.164062 0 4.65625 0 L 1.046875 0 L 1.046875 -8.5625 Z M 4.625 -0.921875 C 5.519531 -0.921875 6.25 -1.253906 6.8125 -1.921875 C 7.351562 -2.554688 7.625 -3.34375 7.625 -4.28125 C 7.625 -5.21875 7.351562 -6.007812 6.8125 -6.65625 C 6.25 -7.3125 5.519531 -7.640625 4.625 -7.640625 L 2.015625 -7.640625 L 2.015625 -0.921875 Z M 4.625 -0.921875 "/></g></g></g><g fill="#01013f" fill-opacity="1"><g transform="translate(266.702365, 165.935854)"><g><path d="M 2.015625 0 L 1.046875 0 L 1.046875 -8.5625 L 2.015625 -8.5625 Z M 2.015625 0 "/></g></g></g><g fill="#01013f" fill-opacity="1"><g transform="translate(272.460982, 165.935854)"><g><path d="M 1.65625 -7.390625 C 2.019531 -7.785156 2.457031 -8.097656 2.96875 -8.328125 C 3.488281 -8.554688 4.023438 -8.671875 4.578125 -8.671875 C 5.128906 -8.671875 5.609375 -8.609375 6.015625 -8.484375 C 6.421875 -8.367188 6.785156 -8.207031 7.109375 -8 C 7.796875 -7.550781 8.296875 -6.960938 8.609375 -6.234375 L 7.5625 -6.234375 C 7.300781 -6.703125 6.9375 -7.066406 6.46875 -7.328125 C 6.007812 -7.585938 5.488281 -7.71875 4.90625 -7.71875 C 4.320312 -7.71875 3.820312 -7.628906 3.40625 -7.453125 C 2.988281 -7.273438 2.640625 -7.035156 2.359375 -6.734375 C 1.765625 -6.085938 1.46875 -5.269531 1.46875 -4.28125 C 1.46875 -3.28125 1.757812 -2.46875 2.34375 -1.84375 C 2.957031 -1.175781 3.769531 -0.84375 4.78125 -0.84375 C 5.582031 -0.84375 6.28125 -1.09375 6.875 -1.59375 C 7.488281 -2.113281 7.796875 -2.804688 7.796875 -3.671875 L 4.671875 -3.671875 L 4.671875 -4.546875 L 8.6875 -4.546875 L 8.6875 0 L 7.796875 0 L 7.796875 -1.515625 C 7.304688 -0.773438 6.625 -0.28125 5.75 -0.03125 C 5.4375 0.0625 5.019531 0.109375 4.5 0.109375 C 3.976562 0.109375 3.457031 -0.00390625 2.9375 -0.234375 C 2.414062 -0.460938 1.976562 -0.773438 1.625 -1.171875 C 0.875 -1.984375 0.5 -3.019531 0.5 -4.28125 C 0.5 -5.519531 0.882812 -6.554688 1.65625 -7.390625 Z M 1.65625 -7.390625 "/></g></g></g><g fill="#01013f" fill-opacity="1"><g transform="translate(284.505901, 165.935854)"><g><path d="M 2.015625 0 L 1.046875 0 L 1.046875 -8.5625 L 2.015625 -8.5625 Z M 2.015625 0 "/></g></g></g><g fill="#01013f" fill-opacity="1"><g transform="translate(290.264518, 165.935854)"><g><path d="M 7.125 -7.640625 L 4.140625 -7.640625 L 4.140625 0 L 3.171875 0 L 3.171875 -7.640625 L 0.1875 -7.640625 L 0.1875 -8.5625 L 7.125 -8.5625 Z M 7.125 -7.640625 "/></g></g></g><g fill="#01013f" fill-opacity="1"><g transform="translate(300.265739, 165.935854)"><g><path d="M 8.53125 0 L 7.453125 0 L 6.40625 -2.484375 L 2.15625 -2.484375 L 1.109375 0 L 0.03125 0 L 3.671875 -8.5625 L 4.890625 -8.5625 Z M 6.03125 -3.375 L 4.28125 -7.5625 L 2.53125 -3.375 Z M 6.03125 -3.375 "/></g></g></g><g fill="#01013f" fill-opacity="1"><g transform="translate(311.521634, 165.935854)"><g><path d="M 2.015625 -8.5625 L 2.015625 -0.9375 L 6.6875 -0.9375 L 6.6875 0 L 1.046875 0 L 1.046875 -8.5625 Z M 2.015625 -8.5625 "/></g></g></g><g fill="#01013f" fill-opacity="1"><g transform="translate(321.108934, 165.935854)"><g><path d="M 2.015625 -7.640625 L 2.015625 -4.765625 L 6.78125 -4.765625 L 6.78125 -3.8125 L 2.015625 -3.8125 L 2.015625 -0.9375 L 7.34375 -0.9375 L 7.34375 0 L 1.046875 0 L 1.046875 -8.5625 L 7.34375 -8.5625 L 7.34375 -7.640625 Z M 2.015625 -7.640625 "/></g></g></g></svg>